<svg xmlns="http://www.w3.org/2000/svg" xmlns:xlink="http://www.w3.org/1999/xlink" id="Layer_1" x="0" y="0" version="1.1" viewBox="0 0 512 512" xml:space="preserve" style="enable-background:new 0 0 512 512"><circle style="fill:#f14742" cx="256" cy="256" r="256"/><g><path style="fill:#fee191" d="M256,54.843c-4.714,0-8.533,3.821-8.533,8.533v56.889h17.067V63.376 C264.533,58.664,260.714,54.843,256,54.843z"/><path style="fill:#fee191" d="M226.314,395.258c0,16.395,13.29,29.686,29.686,29.686s29.686-13.29,29.686-29.686v-45.511h-59.372 V395.258z"/></g><polygon style="fill:#fff1cd" points="139.378 315.614 139.378 361.125 372.622 361.125 372.622 315.614 256 292.858"/><g><path style="fill:#ffd24d" d="M372.622,214.132c0-64.306-52.316-116.622-116.622-116.622s-116.622,52.316-116.622,116.622v101.482 h233.244V214.132z"/><path style="fill:#ffd24d" d="M386.844,369.658H125.156c-4.714,0-8.533-3.821-8.533-8.533s3.82-8.533,8.533-8.533h261.689 c4.714,0,8.533,3.821,8.533,8.533S391.558,369.658,386.844,369.658z"/></g></svg>