<svg xmlns="http://www.w3.org/2000/svg" width="512" height="512" enable-background="new 0 0 512 512"><rect id="backgroundrect" width="100%" height="100%" x="0" y="0" fill="none" stroke="none"/><g class="currentLayer"><title>Layer 1</title><circle id="svg_5" cx="221.742" cy="290.577" r="221.423" fill="#fabb18" fill-opacity="1"/><circle id="svg_7" cx="221.742" cy="290.577" r="162.428" fill="#fff" fill-opacity="1"/><path id="svg_8" fill="#fffde8" fill-opacity="1" d="m384.174 290.574c0 89.709-72.731 162.429-162.429 162.429-37.704 0-72.411-12.849-99.963-34.399 24.391 14.651 52.952 23.073 83.49 23.073 89.698 0 162.429-72.72 162.429-162.429 0-51.995-24.432-98.285-62.445-128.02 47.279 28.407 78.918 80.185 78.918 139.346z"/><circle id="svg_9" cx="221.062" cy="289.216" r="114.015" fill="#000" fill-opacity="1"/><circle id="svg_11" cx="221.742" cy="290.577" r="46.823" fill="#f9f7f8"/><path id="svg_12" fill="#efedef" d="m268.561 290.574c0 25.863-20.963 46.826-46.816 46.826-14.847 0-28.067-6.909-36.643-17.678 6.033 2.842 12.777 4.427 19.882 4.427 25.863 0 46.826-20.963 46.826-46.816 0-11.017-3.81-21.148-10.183-29.148 15.917 7.475 26.934 23.65 26.934 42.389z"/><circle id="svg_15" cx="219.111" cy="290.486" r="72.534" fill="#fff" fill-opacity="1"/><circle id="svg_1" cx="220.654" cy="290.849" r="84.008" fill="#fabb18" fill-opacity="1"/><g id="svg_17" fill="#000" fill-opacity="1" transform="rotate(10.93369197845459 225.91537475585926,286.40350341796875)"><path id="svg_18" fill="#000" fill-opacity="1" d="m263.45921730804446,257.01677792358396 c-5.679,-5.239 -14.53,-4.883 -19.769,0.796 l-24.1,26.123 c-1.038,1.125 -2.816,1.125 -3.854,0 l-7.538,-8.171 c-5.252,-5.6930000000000005 -14.125,-6.051 -19.818,-0.799 c-5.673,5.234 -6.051,14.068 -0.8450000000000006,19.767 l17.653,19.324 c6.606,7.231 17.986,7.259 24.627,0.060000000000000275 l34.44,-37.332 c5.24,-5.6770000000000005 4.883,-14.528 -0.796,-19.768 z"/><path id="svg_19" fill="#000" fill-opacity="1" d="m264.2592173080444,276.78577792358396 l-34.44,37.333 c-6.641,7.197 -18.028,7.166 -24.628,-0.06200000000000033 l-1.112,-1.215 c4.458,-0.021000000000000116 8.906,-1.812 12.201,-5.385 l34.44,-37.333 c4.324,-4.6850000000000005 4.839,-11.521 1.6880000000000006,-16.721 c3.8920000000000003,-0.44300000000000145 7.949,0.7520000000000029 11.048,3.614 c5.683,5.242 6.043,14.086 0.803,19.769 z"/></g></g></svg>